<svg version="1.1" id="Layer_1" xmlns="http://www.w3.org/2000/svg" xmlns:xlink="http://www.w3.org/1999/xlink" x="0px" y="0px"
	 width="64px" height="64px" viewBox="15 0 1518 1044"  xml:space="preserve">
<path fill="#616161" class="jp-icon3" stroke="none" 
	d="
M935.531372,0.999989 
	C937.137268,1.364219 938.263550,2.007126 939.413330,2.052222 
	C974.356018,3.422816 1009.320129,4.361077 1044.240601,6.153227 
	C1084.804810,8.235024 1125.393677,10.500937 1165.554321,17.029541 
	C1175.673584,18.674549 1185.586670,21.690214 1195.512939,24.377071 
	C1200.342407,25.684296 1202.335571,28.824375 1202.287964,34.355850 
	C1201.978882,70.343040 1201.941650,106.335098 1202.223511,142.322372 
	C1202.270874,148.353424 1199.961670,151.593307 1194.667603,152.788239 
	C1183.170410,155.383270 1171.687866,158.368668 1160.028809,159.867371 
	C1091.889771,168.626099 1023.298462,170.858963 954.736633,173.189865 
	C858.469910,176.462646 762.166504,176.366806 665.873108,174.904114 
	C616.083923,174.147812 566.273254,173.024353 516.544556,170.590149 
	C472.169647,168.417999 427.861572,164.585007 383.594421,160.685120 
	C370.107239,159.496902 356.762665,156.038315 343.528107,152.883896 
	C335.845276,151.052689 335.431824,149.570129 335.436005,141.550323 
	C335.454681,105.727531 335.579590,69.904045 335.357941,34.082714 
	C335.326569,29.009773 337.066681,25.988743 341.627197,24.839287 
	C353.839203,21.761293 365.984161,18.031475 378.397736,16.205303 
	C434.182404,7.998761 490.450592,5.881530 546.710205,3.856016 
	C565.679810,3.173055 584.648987,2.478254 603.809204,1.394433 
	C714.354248,1.000000 824.708435,1.000000 935.531372,0.999989 
z"/>
<path fill="#616161" class="jp-icon3" stroke="none" 
	d="
M765.449951,1025.000000 
	C763.182190,1024.537598 761.389343,1023.892578 759.542786,1023.640381 
	C733.873047,1020.133850 713.768555,1006.703369 696.220276,988.508728 
	C686.977051,978.924988 677.958618,969.019165 667.896301,960.352905 
	C647.947021,943.171387 624.908508,939.724365 601.356873,951.001343 
	C584.212524,959.210449 568.252197,969.995667 552.134766,980.217041 
	C535.942139,990.486328 519.923157,1001.153687 500.870667,1005.171204 
	C463.911377,1012.964844 432.317841,1004.128357 408.180664,973.701050 
	C403.839294,968.228333 399.639008,962.604980 394.889465,957.501709 
	C379.253876,940.702148 360.205780,936.350891 338.401123,942.642212 
	C322.878723,947.120972 310.182983,956.613525 297.291382,965.738037 
	C281.385590,976.995850 264.561218,985.963196 245.033539,989.395630 
	C214.850494,994.701050 188.331055,987.313049 165.189819,967.453796 
	C158.366226,961.597961 151.860855,955.372131 145.060165,949.488647 
	C125.353958,932.439880 94.484726,929.208191 71.603798,941.739441 
	C67.229362,944.135193 63.190548,947.356140 58.575134,949.040955 
	C53.761765,950.798035 48.443214,951.895325 43.336861,951.928101 
	C37.904839,951.962891 34.120693,948.261230 32.501938,943.031311 
	C30.883211,937.801453 33.042458,933.434814 36.890842,930.080627 
	C49.527172,919.067200 63.804722,910.875305 80.451332,908.071289 
	C115.268196,902.206726 146.546722,909.508057 172.897644,934.177917 
	C179.697586,940.544067 186.421509,947.215149 194.103973,952.369446 
	C211.599701,964.107483 230.883347,965.588745 249.702133,956.700012 
	C263.136353,950.354553 275.526733,941.677002 288.011108,933.474243 
	C303.019684,923.612976 318.645142,915.267517 336.422943,911.896912 
	C370.442047,905.447083 399.291626,914.819641 422.381744,940.905884 
	C427.237427,946.391724 431.957916,952.008240 436.525146,957.736328 
	C454.564789,980.361328 483.119751,981.739502 502.465912,972.190674 
	C515.681580,965.667786 527.986267,957.301880 540.712769,949.784607 
	C555.014038,941.337158 568.815552,931.839600 583.741699,924.693909 
	C623.802307,905.515625 666.203613,913.302185 697.692383,944.627319 
	C707.138306,954.024109 716.168701,963.837036 725.507751,973.343201 
	C746.574829,994.787231 771.547363,999.424255 798.711975,987.948120 
	C814.235840,981.389893 828.789124,972.417175 843.449097,963.958923 
	C864.325134,951.914368 884.337769,938.250854 905.746765,927.285156 
	C930.331909,914.692688 956.596252,911.281372 983.683289,920.018372 
	C1002.525513,926.096069 1017.245178,938.012024 1030.655762,951.940002 
	C1035.739502,957.219727 1040.629883,962.684998 1045.669434,968.007751 
	C1066.476807,989.984009 1091.587280,994.417053 1119.800781,986.124512 
	C1134.537354,981.793030 1147.176636,973.358887 1160.007446,965.367981 
	C1183.723511,950.597778 1207.036133,935.158813 1231.041138,920.879700 
	C1252.085327,908.361816 1274.918945,901.125549 1299.858521,901.864075 
	C1322.274780,902.527893 1342.563599,909.215088 1359.490479,923.942810 
	C1372.034912,934.857361 1383.770386,946.741150 1395.445435,958.607117 
	C1420.561768,984.134338 1450.223999,986.901001 1482.751343,973.641479 
	C1486.284302,972.201294 1489.777344,970.558105 1493.439331,969.562866 
	C1499.341187,967.958923 1505.076538,968.819336 1510.072632,972.498352 
	C1516.531250,977.254211 1517.314453,984.682373 1511.332153,989.993042 
	C1507.423950,993.462463 1502.696533,996.312988 1497.887939,998.416199 
	C1456.677124,1016.441467 1417.302612,1014.982910 1381.159058,986.019409 
	C1373.402222,979.803467 1366.816406,972.127075 1359.685913,965.128601 
	C1352.913574,958.481445 1346.647705,951.195496 1339.259521,945.321838 
	C1319.069458,929.270630 1295.993896,927.641785 1272.668945,935.946045 
	C1258.884766,940.853516 1245.765015,948.195435 1233.203613,955.849487 
	C1207.925293,971.252502 1183.733887,988.477722 1158.166626,1003.357666 
	C1129.412231,1020.092468 1098.178223,1024.451172 1065.632935,1016.029541 
	C1048.654175,1011.635986 1035.215942,1001.472290 1023.012573,989.326599 
	C1012.521179,978.884888 1002.566528,967.729736 991.076355,958.507629 
	C974.983826,945.591736 956.158813,943.215393 936.295715,948.795166 
	C918.742493,953.726013 903.626709,963.391785 888.345337,972.851868 
	C868.135132,985.363098 848.014404,998.061646 827.330750,1009.751648 
	C811.077698,1018.937561 793.178406,1023.567200 774.196899,1024.619141 
	C771.299988,1025.000000 768.599976,1025.000000 765.449951,1025.000000 
z"/>
<path fill="#616161" class="jp-icon3" stroke="none" 
	d="
M408.334900,362.737061 
	C389.486572,359.801270 370.974213,357.493317 352.725464,353.860992 
	C335.481079,350.428528 335.382629,349.604523 335.367737,332.243378 
	C335.338379,298.085327 335.373322,263.927216 335.379761,229.769150 
	C335.381134,222.489990 336.389679,220.551498 343.587067,220.176987 
	C353.847290,219.643127 364.208282,219.696381 374.451538,220.477951 
	C393.530640,221.933731 412.530975,224.417374 431.609131,225.890015 
	C462.320801,228.260635 493.051544,230.475784 523.806702,232.166809 
	C555.237671,233.895004 586.697083,235.635895 618.162720,236.095703 
	C690.453064,237.152054 762.761658,238.315109 835.049561,237.746735 
	C891.828003,237.300278 948.598022,234.615982 1005.349121,232.355118 
	C1034.956665,231.175613 1064.539185,229.077972 1094.088501,226.815506 
	C1120.479004,224.794937 1146.788208,221.716400 1173.177368,219.672668 
	C1181.036865,219.063950 1189.061035,220.188202 1196.977539,220.884766 
	C1200.533081,221.197586 1202.161987,223.400757 1202.146729,227.410522 
	C1202.000732,265.734192 1202.006592,304.058807 1202.127441,342.382660 
	C1202.140991,346.660919 1200.184204,349.165985 1196.536499,350.129089 
	C1185.955933,352.922729 1175.418823,356.567841 1164.630249,357.762726 
	C1125.749146,362.069031 1086.828247,366.304810 1047.815796,369.058228 
	C1003.966675,372.152985 960.023560,374.435211 916.082520,375.574829 
	C862.127319,376.974152 808.130493,377.359100 754.154541,377.196442 
	C699.016174,377.030334 643.843872,376.654236 588.755798,374.551788 
	C535.011414,372.500641 481.352997,368.178925 427.661957,364.773224 
	C421.353363,364.373077 415.077240,363.461121 408.334900,362.737061 
z"/>
<path fill="#616161" class="jp-icon3" stroke="none" 
	d="
M430.487488,564.535034 
	C403.782867,560.309387 377.398895,556.820068 351.297516,551.847229 
	C335.307159,548.800781 335.336395,547.612549 335.326355,531.572327 
	C335.305176,497.742218 335.403809,463.911713 335.237274,430.082458 
	C335.214630,425.481750 336.990326,423.462646 341.234802,422.554443 
	C352.733704,420.093994 364.090454,421.862610 375.513031,423.195953 
	C404.596954,426.590912 433.650238,430.399200 462.811890,432.937958 
	C497.808105,435.984619 532.877625,438.422241 567.963501,440.144348 
	C607.894104,442.104156 647.868896,443.591187 687.840698,444.181122 
	C740.322021,444.955627 792.827515,445.295746 845.306885,444.610962 
	C887.440857,444.061127 929.577820,442.213257 971.664551,440.007874 
	C1011.232178,437.934448 1050.776123,435.108612 1090.253052,431.713043 
	C1115.943970,429.503235 1141.461304,425.332275 1167.128540,422.759583 
	C1176.947388,421.775391 1186.972412,422.638947 1196.892700,422.977661 
	C1200.862305,423.113129 1202.241455,425.630096 1202.221924,429.762268 
	C1202.048584,466.424866 1202.008667,503.088837 1202.165894,539.751404 
	C1202.185669,544.351990 1200.560059,547.322937 1196.447388,548.455017 
	C1185.417969,551.491211 1174.444336,555.386353 1163.180298,556.793274 
	C1126.369629,561.390991 1089.508545,565.881958 1052.542725,568.885010 
	C934.172363,578.501404 815.519287,579.098633 696.878113,577.671997 
	C638.925171,576.975159 580.980774,574.334045 523.071960,571.705139 
	C492.313629,570.308716 461.639465,567.058655 430.487488,564.535034 
z"/>
<path fill="#616161" class="jp-icon3" stroke="none" 
	d="
M1059.144043,686.958740 
	C1027.830322,688.730164 1001.121765,700.789551 976.956604,719.424805 
	C964.441345,729.076111 951.811035,738.594177 938.928528,747.744202 
	C934.663940,750.773254 929.568909,752.771057 924.642822,754.702881 
	C913.834534,758.941223 903.586426,757.063416 895.485229,749.072449 
	C884.710388,738.444092 875.000488,726.745789 864.486511,715.841309 
	C847.263672,697.978699 826.938538,685.168030 802.549194,679.432434 
	C799.501221,678.715698 796.309265,678.337952 793.177734,678.297974 
	C781.346497,678.146667 769.491638,678.634888 757.685181,678.064697 
	C743.197693,677.365112 729.416504,680.084290 716.785461,686.691528 
	C698.979919,696.005615 681.584229,706.131042 664.256165,716.322449 
	C645.480652,727.365234 627.245117,739.343689 608.295166,750.067810 
	C587.652161,761.750000 575.307739,759.342163 559.236511,741.778198 
	C548.895386,730.476440 539.318542,718.434570 528.521729,707.598694 
	C499.231049,678.202271 463.816132,664.230347 422.073456,666.672546 
	C390.826508,668.500732 363.982483,681.017212 339.449677,699.533752 
	C338.397308,700.328003 337.327484,701.099487 336.251404,701.861267 
	C336.158630,701.926941 335.956573,701.838257 335.607483,701.799133 
	C335.509094,701.446716 335.287384,701.023438 335.287567,700.600281 
	C335.297211,676.434448 335.429871,652.267822 335.260529,628.103333 
	C335.227936,623.453064 337.090485,621.505859 341.374573,620.721680 
	C353.091736,618.576660 364.584686,620.221008 376.080109,622.376282 
	C418.010986,630.237671 460.304474,635.400574 502.794312,638.915710 
	C562.582214,643.862000 622.480042,646.906494 682.473206,647.347473 
	C740.458069,647.773682 798.459473,648.376587 856.430725,647.456604 
	C902.715637,646.722046 948.982483,644.136841 995.227417,641.785522 
	C1044.999268,639.255005 1094.454224,633.540344 1143.619873,625.329773 
	C1156.579346,623.165588 1169.575928,621.124146 1182.626343,619.656860 
	C1187.471924,619.112000 1192.532471,620.272583 1197.472412,620.849365 
	C1200.746094,621.231506 1202.194458,623.057861 1202.182739,626.618774 
	C1202.053345,666.117554 1202.077026,705.616760 1202.010010,745.115784 
	C1202.001221,750.321472 1198.193604,753.099976 1193.203857,750.635620 
	C1188.553711,748.338989 1184.236572,744.950378 1180.505005,741.295166 
	C1171.711426,732.681458 1163.980103,722.897766 1154.699707,714.883301 
	C1129.918701,693.482239 1100.384888,685.573547 1068.106445,686.573303 
	C1065.276611,686.660950 1062.448853,686.812805 1059.144043,686.958740 
z"/>
<path fill="#616161" class="jp-icon3" stroke="none" 
	d="
M309.437286,794.433228 
	C290.318939,806.778564 270.836761,817.523987 248.545273,821.850952 
	C212.977737,828.754944 181.167542,820.155334 153.167984,797.572021 
	C143.070908,789.428101 133.650803,780.427612 124.112251,771.611877 
	C103.520271,752.580566 72.337608,754.602539 53.799953,765.751648 
	C50.334278,767.835999 46.210289,769.309265 42.214390,769.925842 
	C34.383633,771.134216 29.329985,768.080383 26.970497,761.757751 
	C24.659203,755.564331 26.623747,749.527893 32.733822,745.225037 
	C42.062408,738.655640 52.190639,733.573181 63.379265,731.181946 
	C94.050209,724.626953 121.924011,730.398438 146.093796,751.007324 
	C152.807617,756.731995 159.184174,762.860657 165.593582,768.932617 
	C196.162949,797.892761 229.346359,802.445923 265.928833,781.492493 
	C284.094635,771.087585 301.353668,759.099243 319.019135,747.821289 
	C338.507538,735.379395 357.776215,722.575562 377.538422,710.585083 
	C397.265991,698.615540 418.978760,693.429871 442.052185,695.112366 
	C466.796722,696.916748 488.122498,706.904724 505.383972,724.534973 
	C517.835510,737.252502 528.980103,751.238831 541.095703,764.299194 
	C552.667480,776.773315 566.403381,785.828857 583.671753,788.496521 
	C592.973694,789.933472 601.896423,788.387817 610.627930,785.241699 
	C627.405090,779.196655 641.793091,768.940552 656.569885,759.323059 
	C678.031128,745.355042 698.975098,730.401917 721.356262,718.078369 
	C764.424438,694.364319 814.460083,704.046326 847.034729,740.779602 
	C855.211609,750.000366 862.862854,759.710449 871.359070,768.620300 
	C889.143555,787.270569 910.564331,791.999329 934.821777,783.594788 
	C950.592285,778.130615 964.076172,768.609863 977.345276,758.805542 
	C993.671143,746.742676 1009.603455,734.147827 1027.889771,724.964783 
	C1067.110352,705.268799 1117.448364,709.860535 1149.885864,750.534729 
	C1153.307983,754.825745 1157.273682,758.678467 1160.850098,762.851990 
	C1180.631958,785.936890 1210.811523,782.833252 1227.665771,772.154907 
	C1238.026978,765.590332 1247.652344,757.784485 1257.197754,750.030884 
	C1272.018311,737.992432 1287.117676,726.385071 1306.166504,722.093323 
	C1342.873779,713.823120 1373.546753,724.435730 1398.001465,752.911316 
	C1408.373779,764.989014 1419.487305,775.527222 1436.111938,778.447876 
	C1453.017944,781.417908 1468.495483,778.798645 1482.711426,768.985901 
	C1487.075073,765.973877 1491.575073,763.088257 1496.277710,760.657959 
	C1501.538452,757.939392 1507.017212,758.703125 1512.115967,761.409729 
	C1520.480835,765.850098 1522.491089,775.474243 1515.463501,781.764404 
	C1508.591431,787.915283 1500.947266,793.567627 1492.816895,797.884949 
	C1459.383667,815.638672 1407.652588,813.041443 1376.021484,774.261719 
	C1370.219849,767.149048 1363.239990,760.327515 1355.436157,755.656982 
	C1338.936890,745.782227 1321.304443,746.656677 1305.231445,756.672852 
	C1293.731079,763.839600 1283.281128,772.829468 1272.928589,781.668701 
	C1257.840210,794.551453 1242.052002,806.208496 1222.408813,810.773682 
	C1185.510254,819.349121 1154.381226,809.947510 1129.933716,780.145020 
	C1123.735107,772.588684 1117.152832,765.037170 1109.535645,759.015564 
	C1090.768311,744.179565 1069.870972,743.297791 1048.397827,752.650879 
	C1030.688599,760.364441 1015.896973,772.716125 1000.365417,783.864685 
	C982.365417,796.785034 964.261047,809.718506 942.635742,815.899963 
	C901.196655,827.744995 866.574097,816.639893 838.732849,783.870972 
	C831.726807,775.624939 824.966919,767.115234 817.391541,759.417969 
	C796.851318,738.547607 772.177307,733.156189 745.626160,744.879578 
	C728.574341,752.408508 712.722656,762.888550 696.931702,772.982361 
	C676.350281,786.138184 656.964905,801.204895 634.329895,810.973938 
	C592.338928,829.096741 554.550171,822.157776 521.604553,790.937805 
	C509.556061,779.520447 499.219818,766.302002 488.030151,753.970825 
	C476.575958,741.348083 463.309692,731.579041 445.928497,729.127747 
	C426.676361,726.412537 408.766571,730.831482 392.481964,741.114685 
	C364.770203,758.613892 337.302612,776.499756 309.437286,794.433228 
z"/>
<path fill="#616161" class="jp-icon3" stroke="none" 
	d="
M1027.796387,910.170227 
	C1020.465088,906.504089 1013.439087,903.035889 1006.827698,899.772278 
	C1077.604492,894.851257 1148.664429,889.910522 1218.981079,885.021484 
	C1211.058594,889.579773 1202.195923,894.363159 1193.648438,899.655457 
	C1167.069946,916.111938 1140.612549,932.763977 1114.101074,949.328613 
	C1112.693115,950.208313 1111.260010,951.065674 1109.770142,951.793701 
	C1090.897461,961.018127 1079.248169,958.692139 1064.224609,943.154663 
	C1056.131348,934.784424 1047.825684,926.606567 1039.341919,918.633545 
	C1035.977295,915.471619 1031.870483,913.099731 1027.796387,910.170227 
z"/>
<path fill="#616161" class="jp-icon3" stroke="none" 
	d="
M869.060791,901.148010 
	C873.203430,901.146545 876.865051,901.146545 881.233398,901.146545 
	C880.367859,901.884399 879.978455,902.324951 879.497192,902.611084 
	C858.377258,915.166870 837.265808,927.737000 816.115295,940.241089 
	C805.972534,946.237488 795.984741,952.555542 785.514709,957.924133 
	C770.902039,965.416809 757.502380,962.648987 745.775940,951.320374 
	C743.741638,949.355042 741.668884,947.417236 739.774170,945.321716 
	C723.305786,927.108154 706.259399,909.692932 681.360901,902.894653 
	C681.476318,902.312927 681.591736,901.731201 681.707153,901.149475 
	C743.998047,901.149475 806.288940,901.149475 869.060791,901.148010 
z"/>
<path fill="#616161" class="jp-icon3" stroke="none" 
	d="
M406.516235,897.293335 
	C379.534698,889.233032 352.652252,889.506409 325.232147,894.012268 
	C325.264954,894.061340 324.851807,893.701477 324.764252,893.274841 
	C323.046692,884.906067 323.953949,883.390503 332.574493,884.022095 
	C347.845032,885.140991 363.045807,887.205444 378.315155,888.347900 
	C415.003510,891.092712 451.704987,893.682922 488.420258,896.038208 
	C509.819427,897.410950 531.255371,898.210693 553.594177,899.313538 
	C546.577637,903.743225 540.217224,907.770996 533.844543,911.779236 
	C519.912903,920.541687 506.315186,929.907471 491.944702,937.879700 
	C477.360657,945.970398 466.042206,943.565002 454.803070,931.235352 
	C442.684814,917.941040 429.686523,905.975586 412.494629,899.522156 
	C410.629364,898.821960 408.762726,898.125183 406.516235,897.293335 
z"/>
<path fill="#616161" class="jp-icon3" stroke="none" 
	d="
M800.999084,824.547180 
	C764.927979,824.553528 729.356812,824.553528 693.785583,824.553528 
	C693.741150,824.173218 693.696777,823.792847 693.652405,823.412537 
	C711.820801,810.407288 729.955688,797.354736 748.192810,784.446533 
	C751.016357,782.447998 754.215820,780.899292 757.400757,779.507202 
	C768.627380,774.600037 779.223511,775.958435 788.780640,783.558105 
	C793.062134,786.962708 797.124817,790.734924 800.816223,794.770752 
	C809.609314,804.384460 818.122314,814.254456 827.207703,824.540833 
	C818.907654,824.540833 810.203308,824.540833 800.999084,824.547180 
z"/>
<path fill="#616161" class="jp-icon3" stroke="none" 
	d="
M454.259705,778.683838 
	C459.447876,783.639038 464.375122,788.349182 469.250732,793.112183 
	C477.174835,800.853333 485.065186,808.629150 494.201447,817.599670 
	C449.516693,814.943542 405.976471,812.355530 362.436249,809.767456 
	C362.365936,809.337036 362.295654,808.906555 362.225342,808.476135 
	C379.308014,797.448547 396.006012,785.753784 413.598206,775.609863 
	C427.054138,767.850952 441.101532,769.169312 454.259705,778.683838 
z"/>
<path fill="#616161" class="jp-icon3" stroke="none" 
	d="
M595.954102,1017.048096 
	C587.809387,1016.897339 580.151550,1016.876587 572.510254,1016.509766 
	C570.833191,1016.429199 569.215210,1015.117737 567.570007,1014.373047 
	C567.620422,1013.800354 567.670776,1013.227661 567.721191,1012.654907 
	C584.788269,1002.802307 601.544617,992.349548 619.027222,983.299683 
	C631.521973,976.831665 642.771240,979.797607 652.777344,990.624695 
	C661.060181,999.587097 668.739380,1009.107361 677.128906,1018.897156 
	C650.158752,1018.280945 623.302795,1017.667358 595.954102,1017.048096 
z"/>
<path fill="#616161" class="jp-icon3" stroke="none" 
	d="
M989.046814,1001.955933 
	C993.262512,1006.910706 997.235046,1011.606750 1001.007507,1016.066345 
	C965.086670,1016.885742 927.698120,1017.738586 890.309631,1018.591431 
	C890.215149,1018.261475 890.120667,1017.931519 890.026184,1017.601562 
	C896.459412,1013.697998 902.895081,1009.798584 909.325195,1005.889893 
	C917.982971,1000.627136 926.485840,995.088013 935.322571,990.145691 
	C954.977844,979.152283 970.114624,981.689636 985.338013,998.106140 
	C986.468933,999.325684 987.647278,1000.501221 989.046814,1001.955933 
z"/>
<path fill="#616161" class="jp-icon3" stroke="none" 
	d="
M1045.544922,798.558594 
	C1050.184692,795.002075 1054.385254,791.426453 1058.949463,788.398804 
	C1073.172607,778.963867 1087.068481,781.451782 1097.567993,794.971985 
	C1103.052979,802.034912 1108.680420,808.987244 1114.700317,816.564453 
	C1082.563843,817.558350 1050.447021,818.551636 1018.330200,819.544922 
	C1018.157898,819.226990 1017.985596,818.908997 1017.813232,818.591003 
	C1026.966187,811.990723 1036.119141,805.390442 1045.544922,798.558594 
z"/>
<path fill="#616161" class="jp-icon3" stroke="none" 
	d="
M327.368286,998.933228 
	C333.669922,991.370544 339.813171,983.388000 349.308014,979.383789 
	C360.324738,974.737732 370.914734,977.559814 378.216644,987.163086 
	C382.542755,992.852539 386.480225,998.837402 390.929688,1005.169373 
	C389.141571,1005.169373 387.454132,1005.303650 385.793701,1005.148682 
	C367.720825,1003.462097 349.651154,1001.740723 331.584473,999.989136 
	C330.274170,999.862000 328.993896,999.425537 327.368286,998.933228 
z"/>
</svg>